HIERARCHY
ROOT Hips
{
	OFFSET	0.00	0.00	0.00
	CHANNELS 6 Xposition Yposition Zposition Zrotation Xrotation Yrotation
	JOINT Chest
	{
		OFFSET	 0.000000	 4.570000	 0.000000
		CHANNELS 3 Zrotation Xrotation Yrotation
		JOINT Neck
		{
			OFFSET	 0.000000	 17.620001	 0.000000
			CHANNELS 3 Zrotation Xrotation Yrotation
			JOINT Head
			{
				OFFSET	 0.000000	 5.190000	 0.000000
				CHANNELS 3 Zrotation Xrotation Yrotation
				End Site 
				{
					OFFSET	 0.000000	 4.140008	 0.000000
				}
			}
		}
		JOINT LeftCollar
		{
			OFFSET	 1.060000	 15.330000	 01.760000
			CHANNELS 3 Zrotation Xrotation Yrotation
			JOINT LeftShoulder
			{
				OFFSET	 5.00000	 0.000000	 0.000000
				CHANNELS 3 Zrotation Xrotation Yrotation
				JOINT LeftElbow
				{
					OFFSET	 0.000000	-11.90000	 0.000000
					CHANNELS 3 Zrotation Xrotation Yrotation
					JOINT LeftWrist
					{
						OFFSET	 0.000000	-9.520000	 0.000000
						CHANNELS 3 Zrotation Xrotation Yrotation
						End Site 
						{
							OFFSET	 0.000000	-7.0	 0.000000
						}
					}
				}
			}
		}
		JOINT RightCollar
		{
			OFFSET	-1.060000	 15.330000	 01.760000
			CHANNELS 3 Zrotation Xrotation Yrotation
			JOINT RightShoulder
			{
				OFFSET	-5.000000	 0.000000	 0.000000
				CHANNELS 3 Zrotation Xrotation Yrotation
				JOINT RightElbow
				{
					OFFSET	 0.000000	-11.900000	 0.000000
					CHANNELS 3 Zrotation Xrotation Yrotation
					JOINT RightWrist
					{
						OFFSET	 0.000000	-9.520000	 0.000000
						CHANNELS 3 Zrotation Xrotation Yrotation
						End Site 
						{
							OFFSET	 0.000000	-7.0	 0.000000
						}
					}
				}
			}
		}
	}
	JOINT LeftHip
	{
		OFFSET	 3.430000	 0.000000	 0.000000
		CHANNELS 3 Zrotation Xrotation Yrotation
		JOINT LeftKnee
		{
			OFFSET	 0.000000	-19.0	 0.000000
			CHANNELS 3 Zrotation Xrotation Yrotation
			JOINT LeftAnkle
			{
				OFFSET	 0.000000	-15.00000	 0.000000
				CHANNELS 3 Zrotation Xrotation Yrotation
				End Site 
				{
					OFFSET	 0.000000	-3.0	 0.000000
				}
			}
		}
	}
	JOINT RightHip
	{
		OFFSET	-3.430000	 0.000000	 0.000000
		CHANNELS 3 Zrotation Xrotation Yrotation
		JOINT RightKnee
		{
			OFFSET	 0.000000	-19.0	 0.000000
			CHANNELS 3 Zrotation Xrotation Yrotation
			JOINT RightAnkle
			{
				OFFSET	 0.000000	-15.00000	 0.000000
				CHANNELS 3 Zrotation Xrotation Yrotation
				End Site 
				{
					OFFSET	 0.000000	-3.0	 0.000000
				}
			}
		}
	}
}
MOTION
Frames: 10
Frame Time: 0.033333333
0.000000	31.714827	0.000000	4.765520	6.260603	89.973772	-3.014676	9.116779	6.003571	-2.693964	22.727138	0.426844	355.267171	337.611624	-18.132963	10.521112	24.021691	12.962533	-10.320974	-17.882652	2.577542	358.417664	327.243889	-24.765584	-183.740089	-191.847373	126.557350	348.016597	-336.320773	-16.451733	-17.835736	-21.326463	70.782211	333.015727	337.225473	-11.335398	-325.016619	-354.480415	-6.576135	-9.056633	20.431532	17.657814	-355.531417	-318.877645	-1.855896	-21.797013	-12.133418	1.764255	356.079335	344.694393	-1.494625	-1.942259	34.018402	1.060056	34.603455	-6.187611	2.411115	
0.254925	31.665670	0.364012	5.452381	4.612065	89.928167	-1.376388	9.150595	6.098516	-2.204314	22.464645	0.330731	355.093001	337.923900	-17.811914	11.585616	23.993597	13.182213	-10.850716	-16.217604	2.291636	-359.554699	328.359805	-23.885133	-184.282597	-194.181371	126.973240	348.948618	-336.349432	-16.924063	-18.816387	-22.716859	69.931054	334.705078	338.334777	-12.553386	-326.254468	-353.741880	-6.866756	-4.961466	17.743981	17.228172	-354.378454	-309.964112	-3.079667	-21.128191	-5.559370	3.307956	358.465202	346.829101	-0.339749	-2.190506	35.931592	1.272943	32.955119	-8.137280	2.990200	
0.381803	31.628091	0.828012	6.073632	2.412568	90.181540	0.465619	9.507654	6.194404	-1.093621	21.815936	0.128863	354.935169	338.207927	-17.603740	13.475998	23.987970	13.087124	-11.574910	-15.132195	1.891096	-357.870347	329.139021	-25.150528	-186.452179	-197.037906	128.018642	350.178735	-336.389157	-17.540002	-19.824460	-24.377318	69.012858	336.337466	339.340782	-15.073645	-327.999581	-352.905237	-7.192934	0.082742	12.866506	17.387935	-349.786463	-299.603890	-7.233269	-19.545479	3.082442	4.905247	1.860233	-10.720162	1.057005	-2.806961	37.006329	1.603702	32.045525	-10.213428	2.635597	
0.383159	31.588475	1.289659	6.394525	0.425371	90.407113	1.977707	9.881413	6.254858	359.869516	-338.980339	-0.024983	355.143135	338.263661	-17.217552	15.019707	23.948092	13.342123	-11.893143	-14.568383	1.713091	-356.870817	329.413294	-27.545561	-189.408203	-199.142247	129.420743	350.754929	-336.383665	-17.614827	-20.323647	-25.943896	68.405866	337.716782	340.080901	-18.934886	-330.369192	-351.939148	-7.514833	4.356460	6.596578	18.437424	-337.796422	-291.008288	-18.454867	-19.786506	11.571778	6.693461	5.353656	-8.720149	2.272285	-3.798947	37.667751	2.086062	30.992194	-12.074277	1.412901	
0.285066	31.565327	1.662315	6.647742	-0.663601	90.526054	2.677983	10.450447	6.242463	-359.779139	-339.732425	-0.070769	355.724493	338.021299	-16.854618	15.549560	23.877972	13.976738	-11.395158	-14.377090	1.989047	-356.925677	329.176231	-29.123349	-190.809785	-199.684741	130.094965	350.387848	-336.326510	-17.041685	-20.234700	-27.257548	68.183714	338.302539	340.366239	-22.624781	-332.635749	-351.223644	-7.714873	6.782861	-0.347646	19.812000	-316.838041	-286.266252	-38.756654	-21.164884	16.745016	8.693488	7.928208	-6.908203	2.966678	-5.027047	38.095297	2.670419	-330.278460	346.476144	-0.202875	
0.120463	31.572916	1.927434	6.734959	-1.069314	90.586741	2.890974	10.970942	6.203346	359.894597	-340.286080	-0.026155	356.501768	337.676183	-16.557170	15.084826	23.798789	14.772731	-10.234271	-14.438203	2.635679	-358.003317	328.772895	-28.914604	-189.610527	-198.957941	129.575952	349.190406	-336.250887	-16.092770	-19.641475	-28.182779	68.325625	337.892345	340.251984	-24.808462	-333.995531	-351.155971	-7.717664	7.673221	-7.348737	20.849773	-116.101943	105.344737	120.864538	-21.540341	16.984725	10.065541	9.381724	-5.387837	3.197063	-5.959147	38.471265	3.132318	-331.626685	345.227039	-1.447065	
-0.080024	31.608947	2.081955	6.598234	-0.876550	90.622551	2.700703	11.261429	6.169994	-0.967048	19.403636	0.076377	357.353056	337.457098	-16.195292	14.100111	23.702226	15.738634	-9.111317	-14.607691	3.261992	-359.463393	328.346664	-27.708774	-187.178091	-197.398226	128.543474	347.225006	-336.187830	-15.011888	-18.473967	-28.676890	68.880325	336.855686	339.781111	-25.699430	-334.586807	-351.345085	-7.601298	7.381797	-13.776781	21.156054	-107.397304	106.054755	112.385166	-20.766143	14.808227	11.017596	9.594393	-4.186325	3.036901	-6.246003	38.842663	3.310131	-332.750169	343.962388	-1.861525	
-0.306364	31.691896	2.146898	6.417234	-0.002730	90.571072	1.927017	11.492570	6.128945	-2.072165	19.282054	0.203358	357.994493	337.457125	-15.752834	12.806083	23.566411	17.008631	-8.354148	-14.785727	3.683990	359.157264	327.731646	-26.414897	-185.060569	-195.947494	127.702869	344.854739	-336.129883	-13.775046	-17.099877	-28.914461	69.603874	335.402987	338.997032	-25.365266	-334.117327	-351.873332	-7.357353	6.137846	-19.014681	20.618677	-114.858288	106.995129	120.168555	-19.200184	12.936358	11.489455	8.531054	-2.798619	2.470342	-6.007351	38.928867	3.211789	-333.391906	342.928844	-1.190916	
-0.540069	31.803539	2.202500	6.142074	0.536974	89.938125	1.513114	11.540064	6.115453	-3.432709	19.400237	0.369028	358.689150	337.392156	-14.840973	11.074648	23.362813	18.756259	-7.616684	-14.751046	4.096686	357.747158	327.063545	-25.120877	-183.628634	-195.279693	127.138190	342.505400	-336.048686	-12.146826	-15.878243	-29.417006	70.183142	333.963921	338.279617	-23.548612	-332.921060	-353.020257	-6.959175	5.752262	-22.837493	20.342717	-311.425117	-289.097447	-42.984732	-18.108303	11.450402	11.074576	7.819150	-1.304202	2.030831	-5.841047	38.677980	3.104499	-333.509440	342.417700	-0.545492	
-0.770960	31.903417	2.248402	5.448179	0.920543	89.230347	1.183994	11.050505	6.139525	-4.589510	19.597752	0.522529	359.128222	337.409696	-13.767250	9.736218	23.213085	19.957759	-7.155522	-14.524344	4.357146	356.768364	326.426616	-23.815587	-183.049611	-195.220721	126.856431	340.833096	-335.999727	-10.962342	-15.043283	-30.078253	70.509393	332.998460	337.432400	-21.150942	-331.564311	-353.967003	-6.581083	5.843105	-25.780671	20.300160	-327.450598	-293.334979	-26.925423	-17.664226	10.013574	9.914185	7.310390	-0.160484	1.729164	-5.777355	38.142289	3.010010	26.449104	-18.024541	0.003860	
